<svg viewBox="0 0 400 300" fill="none" xmlns="http://www.w3.org/2000/svg"><path d="M266.33 94.12h-43.09v43.089h43.09v-43.09Z" fill="#CBE3F7"/><path d="M263.503 114.366c-2.085 4.282-10.879 10.033-20.107 4.5-7.494-4.496-13.146-7.749-18.091-5.812l.031 21.143 38.195-.056-.028-19.775ZM259.66 105.149a4.232 4.232 0 0 0-3.882-4.557 4.233 4.233 0 1 0 3.882 4.557Z" fill="#fff"/><path opacity=".46" d="M264.458 67.188c-2.085 4.283-10.891 10.032-20.107 4.5-7.494-4.495-13.146-7.75-18.088-5.811l.03 21.14 38.193-.053-.028-19.776ZM259.641 58.288a4.22 4.22 0 1 1-8.441.012 4.22 4.22 0 0 1 8.441-.012Z" fill="#CBE3F7"/><g clip-path="url(#a)"><path fill-rule="evenodd" clip-rule="evenodd" d="M113.898 232.628c-7.948 4.806 2.873 19.998 2.873 19.998l-9.206 6.806c-3.581-1.694-5.588-3.733-6.682-5.675l-6.468 7.283c-4.473-.199-9.189-1.682-11.355-5.921-.684-1.34-.741-3.088-.797-4.808-.073-2.248-.145-4.449-1.61-5.638-1.19-.957-2.916-1.363-4.39-1.622-.764-.134-5.172-.897-5.756-.134 2.97-3.88-2.285-1.419-2.285-1.419-1.755-.594-2.503-4.002-3.075-6.61-.228-1.035-.427-1.944-.65-2.501-.494-1.228-5.043-9.564-6.49-9.038 6.258-2.28 12.978-.706 18.307 3.05 2.271 1.604 3.75 3.803 5.017 6.238.133.253.377.859.679 1.61.806 2.002 2.024 5.029 2.644 5.11.907.117 9.69 5.09 15.153 8.222.093-.51.199-.804.199-.804.681-1.882-1.673-4.961-1.673-4.961-6.753-6.113-1.057-11.944-1.057-11.944 2.452-2.509 1.038-6.954-.804-9.301-.692-.882-1.794-1.545-2.907-2.215-1.85-1.114-3.729-2.246-3.801-4.427-.041-1.203.606-2.241 1.26-3.291.348-.558.698-1.12.948-1.712 1.16-2.752-.176-5.73-2.234-7.647a25.813 25.813 0 0 0-1.35-1.143c-1.313-1.063-2.631-2.13-3.113-3.7-.651-2.122.6-4.504 2.47-5.716 1.87-1.212 4.206-1.463 6.433-1.37 3.977.162 8.018 1.386 10.991 4.034 4.252 3.785 5.705 9.911 5.455 15.603-.193 4.259-.32 7.299 2.82 10.427.365.364.749.72 1.135 1.077 1.951 1.808 3.933 3.644 3.546 6.614-.304 2.329-2.292 4.355-4.227 5.525Z" fill="#CDE5F9"/><mask id="b" style="mask-type:alpha" maskUnits="userSpaceOnUse" x="58" y="189" width="61" height="73"><path fill-rule="evenodd" clip-rule="evenodd" d="M113.898 232.628c-7.948 4.806 2.873 19.998 2.873 19.998l-9.206 6.806c-3.581-1.694-5.588-3.733-6.682-5.675l-6.468 7.283c-4.473-.199-9.189-1.682-11.355-5.921-.684-1.34-.741-3.088-.797-4.808-.073-2.248-.145-4.449-1.61-5.638-1.19-.957-2.916-1.363-4.39-1.622-.764-.134-5.172-.897-5.756-.134 2.97-3.88-2.285-1.419-2.285-1.419-1.755-.594-2.503-4.002-3.075-6.61-.228-1.035-.427-1.944-.65-2.501-.494-1.228-5.043-9.564-6.49-9.038 6.258-2.28 12.978-.706 18.307 3.05 2.271 1.604 3.75 3.803 5.017 6.238.133.253.377.859.679 1.61.806 2.002 2.024 5.029 2.644 5.11.907.117 9.69 5.09 15.153 8.222.093-.51.199-.804.199-.804.681-1.882-1.673-4.961-1.673-4.961-6.753-6.113-1.057-11.944-1.057-11.944 2.452-2.509 1.038-6.954-.804-9.301-.692-.882-1.794-1.545-2.907-2.215-1.85-1.114-3.729-2.246-3.801-4.427-.041-1.203.606-2.241 1.26-3.291.348-.558.698-1.12.948-1.712 1.16-2.752-.176-5.73-2.234-7.647a25.813 25.813 0 0 0-1.35-1.143c-1.313-1.063-2.631-2.13-3.113-3.7-.651-2.122.6-4.504 2.47-5.716 1.87-1.212 4.206-1.463 6.433-1.37 3.977.162 8.018 1.386 10.991 4.034 4.252 3.785 5.705 9.911 5.455 15.603-.193 4.259-.32 7.299 2.82 10.427.365.364.749.72 1.135 1.077 1.951 1.808 3.933 3.644 3.546 6.614-.304 2.329-2.292 4.355-4.227 5.525Z" fill="#CDE5F9"/></mask><g mask="url(#b)" stroke="#fff" stroke-width=".174" stroke-miterlimit="10"><path d="M84.283 186.736c.869 3.377 3.13 5.523 5.867 7.488 1.724 1.237 3.856 2.317 5.126 4.083 1.83 2.549.589 4.88.855 7.769.15 1.623.728 3.245 1.902 4.352 4.746 4.491 7.416 8.097 6.7 14.991-1.011 9.732-1.599 20.855 7.617 27.207M58 223.338c6.178 1.279 11.73 5.005 15.11 10.353 1.524 2.413 2.001 5.404 4.383 7.151 2.434 1.785 5.648 2.123 8.396 3.208 5.052 1.992 8.49 7.067 10.224 12.049"/></g></g><g clip-path="url(#c)"><path fill-rule="evenodd" clip-rule="evenodd" d="M294.326 241.301c4.544 4.382-8.456 12.101-8.456 12.101l8.622 6.611c7.59-1.691 6.915-7.253 6.915-7.253-.171-1.349 1.854-3.036 1.854-3.036 5.397-3.035 2.498-7.758 2.498-7.758-1.247-2.032.366-4.762 1.933-6.043.589-.483 1.421-.757 2.262-1.034 1.392-.46 2.808-.927 3.183-2.359.211-.801-.064-1.595-.343-2.398-.143-.414-.287-.829-.366-1.249-.357-1.998.978-3.77 2.63-4.73.348-.205.719-.388 1.089-.572 1.023-.506 2.045-1.012 2.598-1.977.753-1.314.283-3.077-.776-4.159-1.059-1.082-2.57-1.601-4.058-1.875-2.662-.491-5.524-.287-7.892 1.02-3.391 1.874-5.27 5.712-5.965 9.521-.517 2.853-.89 4.888-3.439 6.489-.3.189-.611.371-.923.552-1.563.909-3.143 1.829-3.336 3.851-.151 1.589.864 3.23 1.97 4.298Zm25.995-.169c-5.939.674-17.829 14.386-17.829 14.386l8.277 6.011c3.335-.644 11.341-5.339 12.499-8.755.365-1.082.214-2.401.065-3.699-.195-1.693-.386-3.35.58-4.4.792-.857 2.034-1.353 3.109-1.71.559-.185 3.778-1.247 4.301-.741-2.658-2.577 1.555-1.317 1.555-1.317 1.249-.638 1.432-3.276 1.572-5.295.055-.801.104-1.505.21-1.948.234-.981 2.721-7.731 3.861-7.499-4.941-1.011-9.809.911-13.39 4.319-1.524 1.453-2.386 3.265-3.068 5.233-.069.202-.18.678-.317 1.268-.376 1.617-.952 4.093-1.425 4.147Z" fill="#CDE5F9"/><mask id="d" style="mask-type:alpha" maskUnits="userSpaceOnUse" x="285" y="215" width="54" height="47"><path fill-rule="evenodd" clip-rule="evenodd" d="M294.326 241.301c4.544 4.382-8.456 12.101-8.456 12.101l8.622 6.611c7.59-1.691 6.915-7.253 6.915-7.253-.171-1.349 1.854-3.036 1.854-3.036 5.397-3.035 2.498-7.758 2.498-7.758-1.247-2.032.366-4.762 1.933-6.043.589-.483 1.421-.757 2.262-1.034 1.392-.46 2.808-.927 3.183-2.359.211-.801-.064-1.595-.343-2.398-.143-.414-.287-.829-.366-1.249-.357-1.998.978-3.77 2.63-4.73.348-.205.719-.388 1.089-.572 1.023-.506 2.045-1.012 2.598-1.977.753-1.314.283-3.077-.776-4.159-1.059-1.082-2.57-1.601-4.058-1.875-2.662-.491-5.524-.287-7.892 1.02-3.391 1.874-5.27 5.712-5.965 9.521-.517 2.853-.89 4.888-3.439 6.489-.3.189-.611.371-.923.552-1.563.909-3.143 1.829-3.336 3.851-.151 1.589.864 3.23 1.97 4.298Zm25.995-.169c-5.939.674-17.829 14.386-17.829 14.386l8.277 6.011c3.335-.644 11.341-5.339 12.499-8.755.365-1.082.214-2.401.065-3.699-.195-1.693-.386-3.35.58-4.4.792-.857 2.034-1.353 3.109-1.71.559-.185 3.778-1.247 4.301-.741-2.658-2.577 1.555-1.317 1.555-1.317 1.249-.638 1.432-3.276 1.572-5.295.055-.801.104-1.505.21-1.948.234-.981 2.721-7.731 3.861-7.499-4.941-1.011-9.809.911-13.39 4.319-1.524 1.453-2.386 3.265-3.068 5.233-.069.202-.18.678-.317 1.268-.376 1.617-.952 4.093-1.425 4.147Z" fill="#CDE5F9"/></mask><g mask="url(#d)" stroke="#fff" stroke-width=".174" stroke-miterlimit="10"><path d="M320.863 215.327c-1.084 2.109-2.905 3.191-5.016 4.081-1.328.56-2.906.959-4.012 1.935-1.594 1.406-1.123 3.146-1.738 5.021-.34 1.045-.968 2.037-1.916 2.598-3.821 2.261-6.131 4.25-6.695 8.928-.794 6.598-4.05 16.126-11.122 18.953M338.52 226.165a17.85 17.85 0 0 0-10.175 9.438c-.876 1.977-.901 4.273-2.493 5.846-1.622 1.609-3.997 2.22-5.937 3.337-3.566 2.053-8.66 8.732-9.406 12.662"/></g></g><path d="M115.489 252.995s36.651-23.399-.215-61.241c-14.066-14.439-20.317-36.311-15.85-55.982 2.317-10.153 8.028-20.805 16.503-27.432 9.594-7.502 22.474-7.032 33.887-5.197 12.476 2.009 24.11 7.243 34.825 13.771 10.195 6.215 19.059 14.513 29.304 20.469 9.528 5.541 19.56 10.058 30.382 12.393 8.223 1.778 16.7 2.315 25.022.889 13.077-2.245 28.359-6.993 40.229 1.752 19.712 14.523 5.097 43.957-12.743 52.455-7.294 3.472-15.266 5.243-22.907 7.87-17.322 5.949-33.482 20.474-31.906 40.258l-126.531-.005Z" fill="#ECF4FD"/><path d="M76 253h264.809" stroke="#000" stroke-width=".232" stroke-miterlimit="10"/><path d="M84.7 112.822a1.448 1.448 0 0 1-1.728 1.419 1.45 1.45 0 0 1-1.136-1.137 1.446 1.446 0 1 1 2.864-.282ZM93.824 112.822a1.45 1.45 0 0 1-1.73 1.423 1.454 1.454 0 0 1-1.14-1.138 1.45 1.45 0 0 1 1.424-1.731 1.447 1.447 0 0 1 1.446 1.446ZM102.947 112.822a1.453 1.453 0 0 1-.893 1.34 1.445 1.445 0 0 1-1.579-.312 1.45 1.45 0 0 1 2.047-2.05c.271.271.424.639.425 1.022ZM112.067 112.822a1.453 1.453 0 0 1-.893 1.34 1.445 1.445 0 0 1-1.579-.313 1.45 1.45 0 1 1 2.472-1.027ZM121.19 112.822a1.443 1.443 0 0 1-1.735 1.422 1.441 1.441 0 0 1-1.135-1.145 1.45 1.45 0 0 1 1.435-1.723 1.45 1.45 0 0 1 1.446 1.446M130.314 112.822a1.445 1.445 0 0 1-1.729 1.423 1.45 1.45 0 0 1-1.14-1.137 1.453 1.453 0 0 1 .616-1.487 1.442 1.442 0 0 1 1.828.179c.272.271.424.639.425 1.022ZM84.7 121.711a1.447 1.447 0 1 1-2.894-.005 1.447 1.447 0 0 1 2.894.005ZM93.824 121.711a1.447 1.447 0 1 1-2.895 0 1.447 1.447 0 0 1 2.895 0ZM102.947 121.711a1.449 1.449 0 1 1-2.898 0 1.449 1.449 0 0 1 2.898 0ZM112.067 121.711a1.449 1.449 0 1 1-2.898 0 1.449 1.449 0 0 1 2.898 0ZM121.19 121.711a1.449 1.449 0 1 1-2.898 0 1.449 1.449 0 0 1 2.898 0ZM130.314 121.711a1.449 1.449 0 1 1-2.898 0 1.449 1.449 0 0 1 2.898 0ZM84.7 130.598a1.447 1.447 0 1 1-2.894-.005 1.447 1.447 0 0 1 2.894.005ZM93.824 130.598a1.447 1.447 0 1 1-2.895 0 1.447 1.447 0 0 1 2.895 0ZM102.947 130.598a1.449 1.449 0 1 1-2.898 0 1.449 1.449 0 0 1 2.898 0ZM112.067 130.598a1.449 1.449 0 1 1-2.898 0 1.449 1.449 0 0 1 2.898 0ZM121.19 130.598a1.453 1.453 0 0 1-.898 1.34 1.448 1.448 0 1 1-.537-2.788 1.44 1.44 0 0 1 1.337.894c.073.176.11.364.109.554M130.314 130.598a1.449 1.449 0 1 1-2.898 0 1.449 1.449 0 0 1 2.898 0ZM84.7 139.485a1.445 1.445 0 1 1-2.89 0 1.445 1.445 0 0 1 2.89 0ZM93.824 139.485a1.447 1.447 0 1 1-2.895.004 1.447 1.447 0 0 1 2.895-.004ZM102.947 139.485a1.45 1.45 0 0 1-1.73 1.423 1.456 1.456 0 0 1-1.139-1.138 1.453 1.453 0 0 1 .615-1.487 1.454 1.454 0 0 1 1.829.178 1.442 1.442 0 0 1 .425 1.024ZM112.067 139.485a1.45 1.45 0 0 1-1.73 1.423 1.446 1.446 0 0 1-1.139-1.139 1.445 1.445 0 0 1 .618-1.487 1.444 1.444 0 0 1 2.251 1.203ZM121.19 139.485a1.45 1.45 0 0 1-1.73 1.423 1.449 1.449 0 1 1 1.73-1.423ZM130.314 139.485a1.442 1.442 0 0 1-.892 1.339 1.454 1.454 0 0 1-1.58-.312 1.453 1.453 0 0 1 .219-2.229 1.449 1.449 0 0 1 2.253 1.202ZM84.7 148.372a1.445 1.445 0 1 1-2.89 0 1.445 1.445 0 0 1 2.89 0ZM93.824 148.372a1.447 1.447 0 1 1-2.895.004 1.447 1.447 0 0 1 2.895-.004ZM102.947 148.372a1.453 1.453 0 0 1-.893 1.339 1.453 1.453 0 0 1-1.579-.312 1.45 1.45 0 0 1 1.023-2.473 1.45 1.45 0 0 1 1.449 1.446ZM112.067 148.372a1.45 1.45 0 0 1-1.73 1.423 1.446 1.446 0 0 1-1.139-1.139 1.445 1.445 0 0 1 .618-1.487 1.444 1.444 0 0 1 2.251 1.203ZM121.19 148.372a1.45 1.45 0 0 1-1.73 1.423 1.449 1.449 0 1 1 1.73-1.423ZM130.314 148.372a1.445 1.445 0 0 1-.892 1.339 1.454 1.454 0 0 1-1.58-.312 1.453 1.453 0 0 1 .219-2.229 1.449 1.449 0 0 1 2.253 1.202ZM84.7 157.258a1.448 1.448 0 0 1-1.728 1.419 1.45 1.45 0 0 1-1.136-1.137 1.446 1.446 0 1 1 2.864-.282ZM93.824 157.258a1.45 1.45 0 0 1-1.73 1.423 1.454 1.454 0 0 1-1.14-1.138 1.45 1.45 0 0 1 1.424-1.731 1.447 1.447 0 0 1 1.446 1.446ZM102.947 157.258a1.453 1.453 0 0 1-.893 1.34 1.445 1.445 0 0 1-1.579-.312 1.45 1.45 0 0 1 2.047-2.05c.271.271.424.639.425 1.022ZM112.067 157.258a1.453 1.453 0 0 1-.893 1.34 1.445 1.445 0 0 1-1.579-.313 1.45 1.45 0 1 1 2.472-1.027ZM121.19 157.258a1.453 1.453 0 0 1-.893 1.34 1.445 1.445 0 0 1-1.58-.313 1.456 1.456 0 0 1-.313-1.58 1.453 1.453 0 0 1 1.34-.893 1.448 1.448 0 0 1 1.446 1.446ZM130.314 157.258a1.445 1.445 0 0 1-1.729 1.423 1.45 1.45 0 0 1-1.14-1.137 1.453 1.453 0 0 1 .616-1.487 1.442 1.442 0 0 1 1.828.179c.272.271.424.639.425 1.022Z" fill="#fff"/><path d="M266.919 46.998H223.83v43.09h43.089v-43.09Z" stroke="#CBE3F7" stroke-width=".695" stroke-miterlimit="10"/><path d="M170.757 141.74h-43.09v43.089h43.09V141.74ZM170.757 46.82h-43.09v43.09h43.09V46.82ZM223.269 141.436v43.09h43.089v-43.09h-43.089ZM170.757 94.12h-43.09v43.089h43.09v-43.09Z" fill="#CBE3F7"/><path d="M168.391 68.092c-2.086 4.284-10.891 10.034-20.107 4.5-7.494-4.493-13.146-7.749-18.091-5.812l.03 21.143 38.196-.056-.028-19.775ZM163.548 59.52a4.22 4.22 0 1 0-8.415-.653 4.22 4.22 0 0 0 8.415.653ZM168.391 113.399c-2.086 4.283-10.891 10.032-20.107 4.501-7.494-4.496-13.146-7.752-18.091-5.812l.03 21.14 38.196-.053-.028-19.776ZM163.376 105.727a4.221 4.221 0 0 0-8.07-2.472 4.22 4.22 0 0 0 8.07 2.472ZM263.503 162.695c-2.085 4.284-10.879 10.033-20.107 4.5-7.494-4.493-13.146-7.749-18.091-5.81l.031 21.141 38.195-.056-.028-19.775ZM258.166 153.519a4.23 4.23 0 0 0-2.827-5.274 4.23 4.23 0 0 0-5.274 2.827 4.23 4.23 0 0 0 2.827 5.274 4.23 4.23 0 0 0 5.274-2.827Z" fill="#fff"/><path d="m201.282 246.362.689-11.176 8.479 1.752-1.873 11.334-7.295-1.91Z" fill="#EFD1D8"/><path d="m201.283 246.362-1.029 6.95h4.117l.431-1.029.858 1.372h11.241v-2.232l-6.266-2.143-.257-1.375-9.095-1.543Z" fill="#3458DF"/><path d="m209.349 250.867 1.545-2.146 1.286 2.962 2.06-1.676.816 2.19.971-1.07" stroke="#000" stroke-width=".232" stroke-miterlimit="10"/><path d="m121.26 222.302 9.125-6.488 3.965 7.695-9.994 5.666-3.096-6.873Z" fill="#EFD1D8"/><path d="m121.259 222.302-6.053 3.566 2.586 3.203 1.071-.313-.528 1.529 7.063 8.746 1.735-1.402-2.266-6.22.906-1.063-4.514-8.046Z" fill="#3458DF"/><path d="m122.824 231.407 2.639-.146-1.495 2.859 2.596.552-1.189 2.009 1.444.083" stroke="#000" stroke-width=".232" stroke-miterlimit="10"/><path d="M201.99 101.502c-2.318 1.229-4.132.42-4.895-1.218-.695-1.523.033-3.796 2.109-3.78.843.03 1.667.262 2.403.674.348.417.65.87.899 1.351.501.99.79 2.281-.516 2.973Z" fill="#EFD1D8"/><path d="M202.867 103.915c4.582 1.812 7.61-.916 8.053-4.908.197-1.768.252-3.708-.526-5.342-.707-1.503-1.889-2.718-3.476-3.195-3.33-1.006-6.936 1.193-8.053 4.908v.035a6.979 6.979 0 0 0 4.014 8.502" fill="#EFD1D8"/><path d="m202.517 101.244-1.271 5.55 4.061.93 1.271-5.55-4.061-.93Z" fill="#EFD1D8"/><path d="M207.715 97.76a.462.462 0 0 1-.591-.681.435.435 0 0 1 .605.074.422.422 0 0 1 .119.306.42.42 0 0 1-.133.301ZM209.534 100.559c.263-.913.391-1.86.38-2.81 0-.279-.431-.332-.427-.054a9.316 9.316 0 0 1-.363 2.707c-.074.259.336.419.41.157Z" fill="#010344"/><path d="M210.433 95.75c-1.571-.215-6.838-3.011-7.83.152-.252.806-.232 1.853-1.089 1.816a.989.989 0 0 1-.857-.95 5.631 5.631 0 0 0-2.105-.185c0-5.522 2.728-6.936 4.153-6.505 0 0 4.688-5.276 6.507-1.622 0 0 5.835-2.595 6.72 2.97.885 5.567-5.49 4.316-5.49 4.316" fill="#000"/><path d="M214.639 112.998c-.387 2.825-5.941 4.403-12.409 3.513-6.467-.889-11.398-3.89-11.011-6.72.387-2.829 5.941-4.402 12.409-3.51 6.467.892 11.396 3.888 11.011 6.72M229.279 132.413l8.037-.927s9.795-16.286 12.666-22.334l3.369-4.206c2.063 0 4.125-.139 6.19-.081.836.021 1.96-.093 2.672.396.565.389 1.209 1.159.968 1.896-.401 1.223-2.442 1.661-3.476 1.928-.607.152-1.223.28-1.84.389-.231.044-2.189.215-2.224.336l-3.627 12.462c-2.166 7.441-2.762 15.118-8.321 21.004-5.434 5.756-12.949 8.511-20.392 4.718-14.404-7.341 5.985-15.581 5.985-15.581" fill="#EFD1D8"/><path d="M183.979 128.385s-19.567 25.606 15.088 69.729l.053 47.481h10.741s21.133-45.314-.32-93.386l-25.562-23.824Z" fill="#1AB7B7"/><path d="m122.032 218.048 6.917 13.706c.602 1.194 22.709-8.004 24.181-8.632 13.817-5.943 28.377-13.535 38.126-25.32 5.404-6.533 8.428-14.599 10.175-22.821a120.054 120.054 0 0 0 1.886-12.513c.262-2.526-.049-8.442 3.708-7.397l-28.392-7.907s-5.744 25.771-7.368 40.903l-49.233 29.981Z" fill="#58C1CC"/><mask id="e" style="mask-type:alpha" maskUnits="userSpaceOnUse" x="122" y="128" width="98" height="118"><path d="M183.979 128.385s-19.567 25.606 15.088 69.729l.053 47.481h10.741s21.133-45.314-.32-93.386l-25.562-23.824Z" fill="#1AB7B7"/><path d="m122.032 218.048 6.917 13.706c.602 1.194 22.709-8.004 24.181-8.632 13.817-5.943 28.377-13.535 38.126-25.32 5.404-6.533 8.428-14.599 10.175-22.821a120.054 120.054 0 0 0 1.886-12.513c.262-2.526-.049-8.442 3.708-7.397l-28.392-7.907s-5.744 25.771-7.368 40.903l-49.233 29.981Z" fill="#58C1CC"/></mask><g mask="url(#e)" stroke="#fff" stroke-width=".116" stroke-miterlimit="10"><path d="m173.58 108.804 103.953 69.945M170.269 113.726l103.952 69.942M166.96 118.646l103.951 69.944M163.648 123.568l103.951 69.942M160.337 128.487l103.951 69.945M157.025 133.409l103.953 69.942M153.714 138.329l103.953 69.944M150.405 143.251l103.951 69.942M147.094 148.17l103.95 69.945M143.782 153.092l103.951 69.945M140.471 158.012l103.951 69.944M137.159 162.934l103.953 69.944M133.848 167.853l103.953 69.945M130.536 172.775l103.953 69.945M127.228 177.695l103.95 69.944M123.917 182.616l103.95 69.945M120.604 187.536l103.951 69.945M117.294 192.458l103.953 69.944M113.982 197.377l103.953 69.945M110.673 202.299l103.95 69.945M107.362 207.219l103.951 69.945M104.05 212.141l103.951 69.944"/></g><path d="M199.628 181.845s-2.373 12.608-15.758 23.555" stroke="#000" stroke-width=".232" stroke-miterlimit="10"/><path d="M202.972 113.851a5.197 5.197 0 0 0 2.653-.604c2.086-1.229 2.318-4.227 2.139-6.257 0 0 13.626 3.81 21.783 19.477 1.272 2.449 2.861 2.711 7.343 3.292.621.082.369 3.196.26 5.307-.174 3.367-2.712 14.353-3.173 16.073 0 0-10.858 1.066-15.683-5.986l-3.708 11.269a27.654 27.654 0 0 1-11.123 3.124 29.31 29.31 0 0 1-5.156-.112c-4.247-.463-8.613-1.466-12.559-3.399-3.128-1.532-7.364-3.068-9.837-5.582l1.546-10.996c-8.769-1.316-14.988-9.102-14.988-9.102 7.843-27.511 35.391-24.276 35.391-24.276l-.051.162c-.602 2.028-.998 4.273.841 6.225 1.069 1.13 2.841 1.39 4.322 1.39" fill="#3458DF"/><path d="M221.729 135.606 214.5 156.7M201.493 103.498s4.032 1.786 5.793.723" stroke="#000" stroke-width=".232" stroke-miterlimit="10"/><path d="M177.648 145.686h-7.269a.8.8 0 0 1-.728-.487.777.777 0 0 1 0-.603.8.8 0 0 1 .426-.426.782.782 0 0 1 .302-.06h7.269a.785.785 0 0 1 .788.788.787.787 0 0 1-.788.788ZM187.518 153.08h-11.533a.154.154 0 0 1-.136-.154c0-.038.014-.074.039-.103a.16.16 0 0 1 .097-.051h11.533a.159.159 0 0 1 .098.051.155.155 0 0 1-.098.257Z" fill="#3458DF"/><path d="M174.699 168.963c-17.966-19.859-11.301-38.444-11.301-38.444l17.899 1.97-4.999 10.919 1.819 25.49.865 3.965 2.646 2.679c.271.273.06 1.117-.121 1.367-.88 1.228-2.352.792-3.455.141a12.123 12.123 0 0 1-1.656-1.221c-.404-.343-1.351-.901-1.391-1.462l-.306-5.399" fill="#EFD1D8"/><path d="M162.469 130.355s8.094 11.264 16.846 10.631l11.366-11.616-15.854-9.774-9.242 2.984-3.116 7.775Z" fill="#3458DF"/><path d="M189.506 125.257s-9.214 9.86-10.196 15.739c0 0-7.339 1.11-16.847-10.632" stroke="#000" stroke-width=".232" stroke-miterlimit="10"/><path d="M179.037 173.099s3.066 2.276 3.439.436c0 0 .463-1.462-4-2.63" fill="#EFD1D8"/><path d="M179.037 173.099s3.066 2.276 3.439.436c0 0 .463-1.462-4-2.63" stroke="#000" stroke-width=".232" stroke-miterlimit="10"/><path d="M227.54 149.331s4.3 1.064 5.897.408M182.487 110.046s-8.604 3.847-10.518 7.467" stroke="#fff" stroke-width=".232" stroke-miterlimit="10"/><path d="M232.318 155.474s8.859 2.292 14.019-5.735" stroke="#000" stroke-width=".232" stroke-miterlimit="10"/><path d="M149.739 169.355v5.139c.009.093.009.186 0 .278a.49.49 0 0 1-.976 0 1.783 1.783 0 0 1 0-.31v-10.338c0-.25-.049-.322-.313-.319-3.361.009-6.724.009-10.089 0a1.98 1.98 0 0 1-.308 0 .478.478 0 0 1-.438-.482.484.484 0 0 1 .463-.499c.093-.005.186-.005.278 0h10.09c.28 0 .331-.074.331-.336-.009-3.445-.009-6.89 0-10.337a1.585 1.585 0 0 1 0-.308.491.491 0 0 1 .971 0c.01.102.01.206 0 .308v10.337c0 .26.044.341.327.339H160.382a.484.484 0 0 1 .347.149.508.508 0 0 1 .14.351.494.494 0 0 1-.501.487H150.061c-.264 0-.315.069-.313.32-.005 1.735-.009 3.478-.009 5.221Z" fill="#fff"/><defs><clipPath id="a"><path fill="#fff" transform="translate(58 189)" d="M0 0h60v64H0z"/></clipPath><clipPath id="c"><path fill="#fff" transform="translate(286 215)" d="M0 0h53v38H0z"/></clipPath></defs></svg>